# Blender 4.4.3
# www.blender.org
mtllib hole_building.mtl
o Cube
v 4.000000 -4.000000 35.000000
v 4.000000 -4.000000 -5.000000
v -4.000000 -4.000000 35.000000
v -4.000000 -4.000000 -5.000000
v 4.000000 4.000000 35.000000
v 4.000000 4.000000 -5.000000
v -4.000000 4.000000 35.000000
v -4.000000 4.000000 -5.000000
v -4.000000 3.000000 30.000000
v -4.000000 2.934443 30.623735
v -4.000000 2.983566 30.313585
v -4.000000 2.853170 30.927052
v -4.000000 2.740636 31.220209
v -4.000000 2.740636 28.779791
v -4.000000 2.427051 28.236645
v -4.000000 2.427051 31.763355
v -4.000000 2.598076 31.500000
v -4.000000 2.229434 32.007393
v -4.000000 2.229434 27.992609
v -4.000000 2.007392 32.229435
v -4.000000 2.007392 27.770565
v -4.000000 2.598076 28.500000
v -4.000000 1.763356 27.572948
v -4.000000 1.763356 32.427052
v -4.000000 1.500000 27.401924
v -4.000000 1.500000 32.598076
v -4.000000 1.220210 27.259365
v -4.000000 0.927051 27.146832
v -4.000000 1.220210 32.740635
v -4.000000 0.927051 32.853168
v -4.000000 0.623735 32.934441
v -4.000000 0.623735 27.065557
v -4.000000 0.313585 32.983566
v -4.000000 0.313585 27.016434
v -4.000000 0.000000 33.000000
v -4.000000 0.000000 27.000000
v -4.000000 -0.313585 32.983566
v -4.000000 -0.313585 27.016434
v -4.000000 -0.623735 32.934441
v -4.000000 -0.623735 27.065557
v -4.000000 -0.927051 27.146832
v -4.000000 -0.927051 32.853168
v -4.000000 -1.220210 27.259365
v -4.000000 -1.220210 32.740635
v -4.000000 -1.500000 27.401924
v -4.000000 -1.763356 27.572948
v -4.000000 -1.500000 32.598076
v -4.000000 -2.007392 27.770565
v -4.000000 -1.763356 32.427052
v -4.000000 -2.229434 27.992609
v -4.000000 -2.007392 32.229435
v -4.000000 -2.229434 32.007393
v -4.000000 -2.427051 31.763355
v -4.000000 -2.427051 28.236645
v -4.000000 -2.598076 31.500000
v -4.000000 -2.740636 31.220209
v -4.000000 -2.740636 28.779791
v -4.000000 -2.598076 28.500000
v -4.000000 -2.934443 29.376265
v -4.000000 -2.853170 30.927052
v -4.000000 -3.000000 30.000000
v -4.000000 -2.983566 29.686415
v -4.000000 -2.983566 30.313585
v -4.000000 -2.853170 29.072948
v -4.000000 -2.934443 30.623735
v -4.000000 2.983566 29.686415
v -4.000000 2.853170 29.072948
v -4.000000 2.934443 29.376265
v 4.000000 2.983566 29.686415
v 4.000000 3.000000 30.000000
v 4.000000 2.983566 30.313585
v 4.000000 2.934443 29.376265
v 4.000000 2.934443 30.623735
v 4.000000 2.853170 29.072948
v 4.000000 2.740636 28.779791
v 4.000000 2.740636 31.220209
v 4.000000 2.598076 28.500000
v 4.000000 2.427051 28.236645
v 4.000000 2.427051 31.763355
v 4.000000 2.598076 31.500000
v 4.000000 2.853170 30.927052
v 4.000000 2.229434 32.007393
v 4.000000 2.229434 27.992609
v 4.000000 2.007392 32.229435
v 4.000000 2.007392 27.770565
v 4.000000 1.763356 27.572948
v 4.000000 1.763356 32.427052
v 4.000000 1.500000 27.401924
v 4.000000 1.500000 32.598076
v 4.000000 1.220210 27.259365
v 4.000000 1.220210 32.740635
v 4.000000 0.623735 27.065557
v 4.000000 0.623735 32.934441
v 4.000000 0.927051 27.146832
v 4.000000 0.927051 32.853168
v 4.000000 0.313585 27.016434
v 4.000000 0.000000 27.000000
v 4.000000 0.000000 33.000000
v 4.000000 -0.313585 32.983566
v 4.000000 -0.313585 27.016434
v 4.000000 -0.623735 32.934441
v 4.000000 -0.623735 27.065557
v 4.000000 -0.927051 27.146832
v 4.000000 -0.927051 32.853168
v 4.000000 -1.220210 27.259365
v 4.000000 -1.220210 32.740635
v 4.000000 -1.500000 27.401924
v 4.000000 -1.500000 32.598076
v 4.000000 -1.763356 27.572948
v 4.000000 -1.763356 32.427052
v 4.000000 -2.007392 27.770565
v 4.000000 -2.007392 32.229435
v 4.000000 -2.427051 28.236645
v 4.000000 -2.427051 31.763355
v 4.000000 -2.229434 27.992609
v 4.000000 -2.229434 32.007393
v 4.000000 -2.740636 28.779791
v 4.000000 -2.740636 31.220209
v 4.000000 -2.934443 30.623735
v 4.000000 -3.000000 30.000000
v 4.000000 -2.983566 30.313585
v 4.000000 -2.853170 30.927052
v 4.000000 -2.598076 31.500000
v 4.000000 -2.598076 28.500000
v 4.000000 0.313585 32.983566
v 4.000000 -2.983566 29.686415
v 4.000000 -2.853170 29.072948
v 4.000000 -2.934443 29.376265
vn -0.0000 -0.0000 1.0000
vn -1.0000 -0.0000 -0.0000
vn -0.0000 1.0000 -0.0000
vn -0.0000 -0.0000 -1.0000
vn -0.0000 -1.0000 -0.0000
vn 1.0000 -0.0000 -0.0000
vn -0.0000 0.0523 -0.9986
vn -0.0000 0.1564 -0.9877
vn -0.0000 0.2588 -0.9659
vn -0.0000 0.3584 -0.9336
vn -0.0000 0.4540 -0.8910
vn -0.0000 0.5446 -0.8387
vn -0.0000 0.6293 -0.7771
vn -0.0000 0.7071 -0.7071
vn -0.0000 0.7771 -0.6293
vn -0.0000 0.8387 -0.5446
vn -0.0000 0.8910 -0.4540
vn -0.0000 0.9336 -0.3584
vn -0.0000 0.9659 -0.2588
vn -0.0000 0.9877 -0.1564
vn -0.0000 0.9986 -0.0523
vn -0.0000 0.9986 0.0523
vn -0.0000 0.9877 0.1564
vn -0.0000 0.9659 0.2588
vn -0.0000 0.9336 0.3584
vn -0.0000 0.8910 0.4540
vn -0.0000 0.8387 0.5446
vn -0.0000 0.7771 0.6293
vn -0.0000 0.7071 0.7071
vn -0.0000 0.6293 0.7771
vn -0.0000 0.5446 0.8387
vn -0.0000 0.4540 0.8910
vn -0.0000 0.3584 0.9336
vn -0.0000 0.2588 0.9659
vn -0.0000 0.1564 0.9877
vn -0.0000 0.0523 0.9986
vn -0.0000 -0.0523 0.9986
vn -0.0000 -0.1564 0.9877
vn -0.0000 -0.2588 0.9659
vn -0.0000 -0.3584 0.9336
vn -0.0000 -0.4540 0.8910
vn -0.0000 -0.5446 0.8387
vn -0.0000 -0.6293 0.7771
vn -0.0000 -0.7071 0.7071
vn -0.0000 -0.7771 0.6293
vn -0.0000 -0.8387 0.5446
vn -0.0000 -0.8910 0.4540
vn -0.0000 -0.9336 0.3584
vn -0.0000 -0.9659 0.2588
vn -0.0000 -0.9877 0.1564
vn -0.0000 -0.9986 0.0523
vn -0.0000 -0.9986 -0.0523
vn -0.0000 -0.9877 -0.1564
vn -0.0000 -0.9659 -0.2588
vn -0.0000 -0.9336 -0.3584
vn -0.0000 -0.8910 -0.4540
vn -0.0000 -0.8387 -0.5446
vn -0.0000 -0.7771 -0.6293
vn -0.0000 -0.7071 -0.7071
vn -0.0000 -0.6293 -0.7771
vn -0.0000 -0.5446 -0.8387
vn -0.0000 -0.4540 -0.8910
vn -0.0000 -0.3584 -0.9336
vn -0.0000 -0.2588 -0.9659
vn -0.0000 -0.1564 -0.9877
vn -0.0000 -0.0523 -0.9986
vt 0.875000 0.500000
vt 0.625000 0.750000
vt 0.625000 0.500000
vt 0.375000 0.750000
vt 0.575000 0.875000
vt 0.575103 0.884800
vt 0.625000 1.000000
vt 0.612500 0.875000
vt 0.612397 0.865200
vt 0.625000 0.000000
vt 0.375000 0.250000
vt 0.375000 0.000000
vt 0.375000 0.500000
vt 0.125000 0.750000
vt 0.125000 0.500000
vt 0.612500 0.375000
vt 0.612397 0.365200
vt 0.575000 0.375000
vt 0.575103 0.384800
vt 1.000000 0.950000
vt 0.983333 0.550000
vt 0.983333 0.950000
vt 0.966667 0.550000
vt 0.966667 0.950000
vt 0.950000 0.550000
vt 0.950000 0.950000
vt 0.933333 0.550000
vt 0.933333 0.950000
vt 0.916667 0.550000
vt 0.916667 0.950000
vt 0.900000 0.550000
vt 0.900000 0.950000
vt 0.883333 0.550000
vt 0.883333 0.950000
vt 0.866667 0.550000
vt 0.866667 0.950000
vt 0.850000 0.550000
vt 0.850000 0.950000
vt 0.833333 0.550000
vt 0.833333 0.950000
vt 0.816667 0.550000
vt 0.816667 0.950000
vt 0.800000 0.550000
vt 0.800000 0.950000
vt 0.783334 0.550000
vt 0.783334 0.950000
vt 0.766667 0.950000
vt 0.766667 0.550000
vt 0.750000 0.950000
vt 0.750000 0.550000
vt 0.733334 0.950000
vt 0.733334 0.550000
vt 0.716667 0.950000
vt 0.700000 0.950000
vt 0.716667 0.550000
vt 0.700000 0.550000
vt 0.683334 0.950000
vt 0.683334 0.550000
vt 0.666667 0.950000
vt 0.666667 0.550000
vt 0.650000 0.950000
vt 0.650000 0.550000
vt 0.633334 0.950000
vt 0.633334 0.550000
vt 0.616667 0.950000
vt 0.616667 0.550000
vt 0.600000 0.950000
vt 0.600000 0.550000
vt 0.583334 0.950000
vt 0.583334 0.550000
vt 0.566667 0.950000
vt 0.566667 0.550000
vt 0.550000 0.950000
vt 0.550000 0.550000
vt 0.533334 0.950000
vt 0.533334 0.550000
vt 0.516667 0.950000
vt 0.516667 0.550000
vt 0.500000 0.950000
vt 0.500000 0.550000
vt 0.483334 0.950000
vt 0.483334 0.550000
vt 0.466667 0.950000
vt 0.466667 0.550000
vt 0.450000 0.950000
vt 0.450000 0.550000
vt 0.433334 0.950000
vt 0.433334 0.550000
vt 0.416667 0.950000
vt 0.416667 0.550000
vt 0.400000 0.950000
vt 0.400000 0.550000
vt 0.383334 0.950000
vt 0.383334 0.550000
vt 0.366667 0.950000
vt 0.366667 0.550000
vt 0.350000 0.950000
vt 0.350000 0.550000
vt 0.333334 0.950000
vt 0.333334 0.550000
vt 0.316667 0.950000
vt 0.316667 0.550000
vt 0.300000 0.950000
vt 0.300000 0.550000
vt 0.283334 0.950000
vt 0.283334 0.550000
vt 0.266667 0.550000
vt 0.266667 0.950000
vt 0.250000 0.550000
vt 0.250000 0.950000
vt 0.233334 0.550000
vt 0.233334 0.950000
vt 0.216667 0.550000
vt 0.216667 0.950000
vt 0.200000 0.550000
vt 0.200000 0.950000
vt 0.183334 0.550000
vt 0.183334 0.950000
vt 0.166667 0.550000
vt 0.166667 0.950000
vt 0.150000 0.550000
vt 0.150000 0.950000
vt 0.133334 0.550000
vt 0.133334 0.950000
vt 0.116667 0.550000
vt 0.116667 0.950000
vt 0.100000 0.550000
vt 0.100000 0.950000
vt 0.083334 0.550000
vt 0.083334 0.950000
vt 0.066667 0.550000
vt 0.066667 0.950000
vt 0.050000 0.550000
vt 0.050000 0.950000
vt 0.033334 0.550000
vt 0.033334 0.950000
vt 0.016667 0.550000
vt 0.016667 0.950000
vt 0.000000 0.550000
vt 0.000000 0.950000
vt 0.875000 0.750000
vt 0.595710 0.968236
vt 0.597648 0.966701
vt 0.597648 0.783299
vt 0.595710 0.781764
vt 0.593750 0.781250
vt 0.593750 0.968750
vt 0.591790 0.968236
vt 0.591790 0.781764
vt 0.375000 1.000000
vt 0.589852 0.966701
vt 0.589852 0.783299
vt 0.587956 0.785838
vt 0.587956 0.964162
vt 0.586124 0.789355
vt 0.584375 0.793810
vt 0.586124 0.960645
vt 0.584375 0.956190
vt 0.582729 0.799155
vt 0.581204 0.805330
vt 0.582729 0.950845
vt 0.581204 0.944670
vt 0.579816 0.812269
vt 0.578581 0.819895
vt 0.579816 0.937731
vt 0.578581 0.930105
vt 0.577512 0.828125
vt 0.576621 0.836868
vt 0.577512 0.921875
vt 0.576621 0.913131
vt 0.575918 0.846030
vt 0.575410 0.855508
vt 0.575918 0.903970
vt 0.575410 0.894492
vt 0.575103 0.865201
vt 0.599544 0.785838
vt 0.599544 0.964162
vt 0.601376 0.960645
vt 0.601376 0.789355
vt 0.603125 0.793810
vt 0.603125 0.956190
vt 0.604771 0.950845
vt 0.604771 0.799155
vt 0.606296 0.805330
vt 0.606296 0.944670
vt 0.607684 0.937731
vt 0.607684 0.812269
vt 0.608919 0.819895
vt 0.608919 0.930105
vt 0.609988 0.921875
vt 0.609988 0.828125
vt 0.610879 0.836868
vt 0.610879 0.913132
vt 0.611582 0.903970
vt 0.611582 0.846030
vt 0.612090 0.894492
vt 0.612397 0.884800
vt 0.612090 0.855508
vt 0.625000 0.250000
vt 0.599544 0.285838
vt 0.597648 0.283299
vt 0.597648 0.466701
vt 0.599544 0.464162
vt 0.601376 0.460645
vt 0.601376 0.289355
vt 0.603125 0.293810
vt 0.603125 0.456190
vt 0.604771 0.450845
vt 0.604771 0.299155
vt 0.606296 0.305330
vt 0.606296 0.444670
vt 0.607684 0.437731
vt 0.607684 0.312269
vt 0.608919 0.319895
vt 0.608919 0.430105
vt 0.609988 0.421875
vt 0.609988 0.328125
vt 0.610879 0.336868
vt 0.610879 0.413132
vt 0.611582 0.403970
vt 0.611582 0.346030
vt 0.612090 0.394492
vt 0.612397 0.384800
vt 0.612090 0.355508
vt 0.595710 0.468236
vt 0.595710 0.281764
vt 0.593750 0.281250
vt 0.593750 0.468750
vt 0.591790 0.468236
vt 0.591790 0.281764
vt 0.589852 0.466701
vt 0.589852 0.283299
vt 0.587956 0.285838
vt 0.587956 0.464162
vt 0.586124 0.289355
vt 0.584375 0.293810
vt 0.586124 0.460645
vt 0.584375 0.456190
vt 0.582729 0.299155
vt 0.581204 0.305330
vt 0.582729 0.450845
vt 0.581204 0.444670
vt 0.579816 0.312269
vt 0.578581 0.319895
vt 0.579816 0.437731
vt 0.578581 0.430105
vt 0.577512 0.328125
vt 0.576621 0.336868
vt 0.577512 0.421875
vt 0.576621 0.413132
vt 0.575918 0.346030
vt 0.575410 0.355508
vt 0.575918 0.403970
vt 0.575410 0.394492
vt 0.575103 0.365200
vt 1.000000 0.550000
s 0
usemtl Material
f 5/1/1 3/2/1 1/3/1
f 4/4/2 36/5/2 34/6/2
f 7/7/2 35/8/2 37/9/2
f 7/10/3 6/11/3 8/12/3
f 2/13/4 8/14/4 6/15/4
f 1/3/5 4/4/5 2/13/5
f 1/3/6 98/16/6 125/17/6
f 6/11/6 97/18/6 100/19/6
f 35/20/7 99/21/7 37/22/7
f 37/22/8 101/23/8 39/24/8
f 39/24/9 104/25/9 42/26/9
f 42/26/10 106/27/10 44/28/10
f 44/28/11 108/29/11 47/30/11
f 47/30/12 110/31/12 49/32/12
f 49/32/13 112/33/13 51/34/13
f 51/34/14 116/35/14 52/36/14
f 52/36/15 114/37/15 53/38/15
f 53/38/16 123/39/16 55/40/16
f 55/40/17 118/41/17 56/42/17
f 56/42/18 122/43/18 60/44/18
f 60/44/19 119/45/19 65/46/19
f 119/45/20 63/47/20 65/46/20
f 121/48/21 61/49/21 63/47/21
f 120/50/22 62/51/22 61/49/22
f 126/52/23 59/53/23 62/51/23
f 64/54/24 128/55/24 127/56/24
f 57/57/25 127/56/25 117/58/25
f 58/59/26 117/58/26 124/60/26
f 54/61/27 124/60/27 113/62/27
f 50/63/28 113/62/28 115/64/28
f 48/65/29 115/64/29 111/66/29
f 46/67/30 111/66/30 109/68/30
f 45/69/31 109/68/31 107/70/31
f 43/71/32 107/70/32 105/72/32
f 41/73/33 105/72/33 103/74/33
f 40/75/34 103/74/34 102/76/34
f 38/77/35 102/76/35 100/78/35
f 36/79/36 100/78/36 97/80/36
f 34/81/37 97/80/37 96/82/37
f 32/83/38 96/82/38 92/84/38
f 28/85/39 92/84/39 94/86/39
f 27/87/40 94/86/40 90/88/40
f 25/89/41 90/88/41 88/90/41
f 23/91/42 88/90/42 86/92/42
f 21/93/43 86/92/43 85/94/43
f 19/95/44 85/94/44 83/96/44
f 15/97/45 83/96/45 78/98/45
f 22/99/46 78/98/46 77/100/46
f 14/101/47 77/100/47 75/102/47
f 67/103/48 75/102/48 74/104/48
f 68/105/49 74/104/49 72/106/49
f 68/105/50 69/107/50 66/108/50
f 66/108/51 70/109/51 9/110/51
f 9/110/52 71/111/52 11/112/52
f 11/112/53 73/113/53 10/114/53
f 10/114/54 81/115/54 12/116/54
f 12/116/55 76/117/55 13/118/55
f 13/118/56 80/119/56 17/120/56
f 17/120/57 79/121/57 16/122/57
f 16/122/58 82/123/58 18/124/58
f 18/124/59 84/125/59 20/126/59
f 20/126/60 87/127/60 24/128/60
f 24/128/61 89/129/61 26/130/61
f 26/130/62 91/131/62 29/132/62
f 29/132/63 95/133/63 30/134/63
f 30/134/64 93/135/64 31/136/64
f 31/136/65 125/137/65 33/138/65
f 33/138/66 98/139/66 35/140/66
f 5/1/1 7/141/1 3/2/1
f 11/142/2 10/143/2 7/7/2
f 3/2/2 65/144/2 63/145/2
f 3/2/2 63/145/2 61/146/2
f 9/147/2 11/142/2 7/7/2
f 66/148/2 9/147/2 7/7/2
f 4/4/2 3/2/2 61/146/2
f 4/4/2 61/146/2 62/149/2
f 66/148/2 7/7/2 8/150/2
f 68/151/2 66/148/2 8/150/2
f 4/4/2 62/149/2 59/152/2
f 4/4/2 59/152/2 64/153/2
f 68/151/2 8/150/2 4/4/2
f 67/154/2 68/151/2 4/4/2
f 4/4/2 64/153/2 57/155/2
f 4/4/2 57/155/2 58/156/2
f 14/157/2 67/154/2 4/4/2
f 22/158/2 14/157/2 4/4/2
f 4/4/2 58/156/2 54/159/2
f 4/4/2 54/159/2 50/160/2
f 15/161/2 22/158/2 4/4/2
f 19/162/2 15/161/2 4/4/2
f 4/4/2 50/160/2 48/163/2
f 4/4/2 48/163/2 46/164/2
f 21/165/2 19/162/2 4/4/2
f 23/166/2 21/165/2 4/4/2
f 4/4/2 46/164/2 45/167/2
f 4/4/2 45/167/2 43/168/2
f 25/169/2 23/166/2 4/4/2
f 27/170/2 25/169/2 4/4/2
f 4/4/2 43/168/2 41/171/2
f 4/4/2 41/171/2 40/172/2
f 28/173/2 27/170/2 4/4/2
f 32/174/2 28/173/2 4/4/2
f 4/4/2 40/172/2 38/175/2
f 4/4/2 38/175/2 36/5/2
f 34/6/2 32/174/2 4/4/2
f 60/176/2 65/144/2 3/2/2
f 7/7/2 10/143/2 12/177/2
f 7/7/2 12/177/2 13/178/2
f 56/179/2 60/176/2 3/2/2
f 55/180/2 56/179/2 3/2/2
f 7/7/2 13/178/2 17/181/2
f 7/7/2 17/181/2 16/182/2
f 53/183/2 55/180/2 3/2/2
f 52/184/2 53/183/2 3/2/2
f 7/7/2 16/182/2 18/185/2
f 7/7/2 18/185/2 20/186/2
f 51/187/2 52/184/2 3/2/2
f 49/188/2 51/187/2 3/2/2
f 7/7/2 20/186/2 24/189/2
f 7/7/2 24/189/2 26/190/2
f 47/191/2 49/188/2 3/2/2
f 44/192/2 47/191/2 3/2/2
f 7/7/2 26/190/2 29/193/2
f 7/7/2 29/193/2 30/194/2
f 44/192/2 3/2/2 7/7/2
f 42/195/2 44/192/2 7/7/2
f 7/7/2 30/194/2 31/196/2
f 7/7/2 31/196/2 33/197/2
f 39/198/2 42/195/2 7/7/2
f 37/9/2 39/198/2 7/7/2
f 7/7/2 33/197/2 35/8/2
f 7/10/3 5/199/3 6/11/3
f 2/13/4 4/4/4 8/14/4
f 1/3/5 3/2/5 4/4/5
f 81/200/6 73/201/6 5/199/6
f 1/3/6 119/202/6 122/203/6
f 1/3/6 122/203/6 118/204/6
f 76/205/6 81/200/6 5/199/6
f 80/206/6 76/205/6 5/199/6
f 1/3/6 118/204/6 123/207/6
f 1/3/6 123/207/6 114/208/6
f 79/209/6 80/206/6 5/199/6
f 82/210/6 79/209/6 5/199/6
f 1/3/6 114/208/6 116/211/6
f 1/3/6 116/211/6 112/212/6
f 84/213/6 82/210/6 5/199/6
f 87/214/6 84/213/6 5/199/6
f 1/3/6 112/212/6 110/215/6
f 1/3/6 110/215/6 108/216/6
f 89/217/6 87/214/6 5/199/6
f 91/218/6 89/217/6 5/199/6
f 1/3/6 108/216/6 106/219/6
f 1/3/6 106/219/6 104/220/6
f 91/218/6 5/199/6 1/3/6
f 95/221/6 91/218/6 1/3/6
f 1/3/6 104/220/6 101/222/6
f 1/3/6 101/222/6 99/223/6
f 93/224/6 95/221/6 1/3/6
f 125/17/6 93/224/6 1/3/6
f 1/3/6 99/223/6 98/16/6
f 121/225/6 119/202/6 1/3/6
f 5/199/6 73/201/6 71/226/6
f 5/199/6 71/226/6 70/227/6
f 120/228/6 121/225/6 1/3/6
f 126/229/6 120/228/6 1/3/6
f 6/11/6 5/199/6 70/227/6
f 6/11/6 70/227/6 69/230/6
f 126/229/6 1/3/6 2/13/6
f 128/231/6 126/229/6 2/13/6
f 6/11/6 69/230/6 72/232/6
f 6/11/6 72/232/6 74/233/6
f 128/231/6 2/13/6 6/11/6
f 127/234/6 128/231/6 6/11/6
f 6/11/6 74/233/6 75/235/6
f 6/11/6 75/235/6 77/236/6
f 117/237/6 127/234/6 6/11/6
f 124/238/6 117/237/6 6/11/6
f 6/11/6 77/236/6 78/239/6
f 6/11/6 78/239/6 83/240/6
f 113/241/6 124/238/6 6/11/6
f 115/242/6 113/241/6 6/11/6
f 6/11/6 83/240/6 85/243/6
f 6/11/6 85/243/6 86/244/6
f 111/245/6 115/242/6 6/11/6
f 109/246/6 111/245/6 6/11/6
f 6/11/6 86/244/6 88/247/6
f 6/11/6 88/247/6 90/248/6
f 107/249/6 109/246/6 6/11/6
f 105/250/6 107/249/6 6/11/6
f 6/11/6 90/248/6 94/251/6
f 6/11/6 94/251/6 92/252/6
f 103/253/6 105/250/6 6/11/6
f 102/254/6 103/253/6 6/11/6
f 6/11/6 92/252/6 96/255/6
f 6/11/6 96/255/6 97/18/6
f 100/19/6 102/254/6 6/11/6
f 35/20/7 98/256/7 99/21/7
f 37/22/8 99/21/8 101/23/8
f 39/24/9 101/23/9 104/25/9
f 42/26/10 104/25/10 106/27/10
f 44/28/11 106/27/11 108/29/11
f 47/30/12 108/29/12 110/31/12
f 49/32/13 110/31/13 112/33/13
f 51/34/14 112/33/14 116/35/14
f 52/36/15 116/35/15 114/37/15
f 53/38/16 114/37/16 123/39/16
f 55/40/17 123/39/17 118/41/17
f 56/42/18 118/41/18 122/43/18
f 60/44/19 122/43/19 119/45/19
f 119/45/20 121/48/20 63/47/20
f 121/48/21 120/50/21 61/49/21
f 120/50/22 126/52/22 62/51/22
f 126/52/23 128/55/23 59/53/23
f 64/54/24 59/53/24 128/55/24
f 57/57/25 64/54/25 127/56/25
f 58/59/26 57/57/26 117/58/26
f 54/61/27 58/59/27 124/60/27
f 50/63/28 54/61/28 113/62/28
f 48/65/29 50/63/29 115/64/29
f 46/67/30 48/65/30 111/66/30
f 45/69/31 46/67/31 109/68/31
f 43/71/32 45/69/32 107/70/32
f 41/73/33 43/71/33 105/72/33
f 40/75/34 41/73/34 103/74/34
f 38/77/35 40/75/35 102/76/35
f 36/79/36 38/77/36 100/78/36
f 34/81/37 36/79/37 97/80/37
f 32/83/38 34/81/38 96/82/38
f 28/85/39 32/83/39 92/84/39
f 27/87/40 28/85/40 94/86/40
f 25/89/41 27/87/41 90/88/41
f 23/91/42 25/89/42 88/90/42
f 21/93/43 23/91/43 86/92/43
f 19/95/44 21/93/44 85/94/44
f 15/97/45 19/95/45 83/96/45
f 22/99/46 15/97/46 78/98/46
f 14/101/47 22/99/47 77/100/47
f 67/103/48 14/101/48 75/102/48
f 68/105/49 67/103/49 74/104/49
f 68/105/50 72/106/50 69/107/50
f 66/108/51 69/107/51 70/109/51
f 9/110/52 70/109/52 71/111/52
f 11/112/53 71/111/53 73/113/53
f 10/114/54 73/113/54 81/115/54
f 12/116/55 81/115/55 76/117/55
f 13/118/56 76/117/56 80/119/56
f 17/120/57 80/119/57 79/121/57
f 16/122/58 79/121/58 82/123/58
f 18/124/59 82/123/59 84/125/59
f 20/126/60 84/125/60 87/127/60
f 24/128/61 87/127/61 89/129/61
f 26/130/62 89/129/62 91/131/62
f 29/132/63 91/131/63 95/133/63
f 30/134/64 95/133/64 93/135/64
f 31/136/65 93/135/65 125/137/65
f 33/138/66 125/137/66 98/139/66
